HIERARCHY
ROOT SimulationBone
{
	OFFSET 0.000000 0.000000 0.000000
	CHANNELS 6 Xposition Yposition Zposition Zrotation Yrotation Xrotation 
	JOINT Hips
	{
		OFFSET 0.000000 0.000000 0.000000
		CHANNELS 6 Xposition Yposition Zposition Zrotation Yrotation Xrotation 
		JOINT RightUpLeg
		{
			OFFSET 0.103459 1.857831 10.548505
			CHANNELS 3 Zrotation Yrotation Xrotation
			JOINT RightLeg
			{
				OFFSET 43.500004 -0.000023 -0.000004
				CHANNELS 3 Zrotation Yrotation Xrotation
				JOINT RightFoot
				{
					OFFSET 42.372204 0.000019 -0.000006
					CHANNELS 3 Zrotation Yrotation Xrotation
					JOINT RightToe
					{
						OFFSET 17.300005 0.000001 -0.000002
						CHANNELS 3 Zrotation Yrotation Xrotation
						End Site
						{
							OFFSET 0.000000 0.000000 0.000000
						}
					}
				}
			}
		}
		JOINT LeftUpLeg
		{
			OFFSET 0.103461 1.857828 -10.548505
			CHANNELS 3 Zrotation Yrotation Xrotation
			JOINT LeftLeg
			{
				OFFSET 43.500046 -0.000019 0.000006
				CHANNELS 3 Zrotation Yrotation Xrotation
				JOINT LeftFoot
				{
					OFFSET 42.372261 -0.000015 0.000011
					CHANNELS 3 Zrotation Yrotation Xrotation
					JOINT LeftToe
					{
						OFFSET 17.299999 -0.000003 0.000002
						CHANNELS 3 Zrotation Yrotation Xrotation
						End Site
						{
							OFFSET 0.000000 0.000000 0.000000
						}
					}
				}
			}
		}
		JOINT Spine
		{
			OFFSET 6.901964 -2.603731 0.000000
			CHANNELS 3 Zrotation Yrotation Xrotation
			JOINT Spine1
			{
				OFFSET 12.588102 -0.000003 0.000000
				CHANNELS 3 Zrotation Yrotation Xrotation
				JOINT Spine2
				{
					OFFSET 12.343204 0.000002 0.000000
					CHANNELS 3 Zrotation Yrotation Xrotation
					JOINT Neck
					{
						OFFSET 25.832891 -0.000013 0.000001
						CHANNELS 3 Zrotation Yrotation Xrotation
						JOINT Head
						{
							OFFSET 11.766613 0.000015 -0.000000
							CHANNELS 3 Zrotation Yrotation Xrotation
							End Site
							{
								OFFSET 0.000000 0.000000 0.000000
							}
						}
					}
					JOINT RightShoulder
					{
						OFFSET 19.745911 -1.480375 6.000106
						CHANNELS 3 Zrotation Yrotation Xrotation
						JOINT RightArm
						{
							OFFSET 11.284125 -0.000012 -0.000024
							CHANNELS 3 Zrotation Yrotation Xrotation
							JOINT RightForeArm
							{
								OFFSET 33.000050 0.000007 0.000027
								CHANNELS 3 Zrotation Yrotation Xrotation
								JOINT RightHand
								{
									OFFSET 25.200005 0.000018 0.000002
									CHANNELS 3 Zrotation Yrotation Xrotation
									End Site
									{
										OFFSET 0.000000 0.000000 0.000000
									}
								}
							}
						}
					}
					JOINT LeftShoulder
					{
						OFFSET 19.746092 -1.480375 -6.000074
						CHANNELS 3 Zrotation Yrotation Xrotation
						JOINT LeftArm
						{
							OFFSET 11.284139 -0.000017 -0.000020
							CHANNELS 3 Zrotation Yrotation Xrotation
							JOINT LeftForeArm
							{
								OFFSET 33.000099 0.000021 0.000012
								CHANNELS 3 Zrotation Yrotation Xrotation
								JOINT LeftHand
								{
									OFFSET 25.199780 0.000137 0.000427
									CHANNELS 3 Zrotation Yrotation Xrotation
									End Site
									{
										OFFSET 0.000000 0.000000 0.000000
									}
								}
							}
						}
					}
				}
			}
		}
	}
}
MOTION
Frames: 5
Frame Time: 0.016667
-28.252592 0.000000 29.535201 0.000000 -80.440690 0.000000 1.211527 87.810867 -0.981738 96.302756 -0.103918 179.113680 -165.597909 5.201705 -179.648633 -30.803039 -2.607616 -6.347733 89.912978 4.845942 2.780874 21.454555 0.003112 0.000018 159.762414 -0.162894 -167.997505 -18.701039 1.300956 0.497920 66.304313 -2.131743 -4.463376 21.454553 -0.003095 -0.000000 8.065266 0.720003 -1.152729 6.103354 1.499578 -2.266229 5.785423 1.485730 -2.275243 9.219636 7.646659 12.732094 -10.058077 -13.210580 18.464264 142.725817 -72.816376 36.868690 -4.445491 52.590922 18.028294 -56.787175 -16.452748 2.111105 7.583887 -10.296441 23.310691 -176.620810 70.073927 4.768748 12.109316 -54.528595 -56.638881 -22.556601 13.649033 -1.020127 14.183132 3.908431 1.124027 
-28.065263 0.000000 31.231947 0.000000 -80.001565 0.000000 1.292122 87.864548 -0.666690 96.405002 1.255121 179.116888 -166.489402 3.132800 178.700511 -34.434661 -2.569408 -5.416798 87.590699 4.347262 3.118537 21.454554 0.003110 0.000017 160.164893 -1.740502 -169.423964 -20.325196 1.386746 1.809777 67.997497 -2.983858 -4.427348 21.454554 -0.003095 0.000000 8.060033 1.124703 -1.187609 6.085095 2.310037 -2.315137 5.767013 2.295889 -2.329049 9.434872 7.340605 12.323994 -9.994479 -13.510714 18.061295 143.053366 -72.466435 36.561427 -4.109244 53.198894 18.756835 -55.200886 -16.769215 2.076237 7.730952 -10.533683 22.871389 -176.912513 69.868037 4.464007 11.141372 -53.978781 -55.736908 -22.118715 13.556509 -1.008693 14.284756 3.747083 1.282722 
-27.875856 0.000000 32.900953 0.000000 -79.608088 0.000000 1.407439 87.837273 -0.352840 96.603070 2.466431 179.277383 -167.855587 1.004301 177.082039 -39.035394 -2.513704 -4.392059 84.716044 3.792220 3.360377 21.454555 0.003108 0.000014 160.599290 -3.007719 -169.937962 -22.311815 1.368362 2.668706 70.203088 -3.360824 -4.045259 21.454555 -0.003091 0.000001 8.080221 1.507649 -1.266356 6.116819 3.079837 -2.452422 5.798548 3.064851 -2.470987 9.698621 6.985470 11.841559 -10.009405 -13.834849 17.591415 143.102925 -72.345879 36.520026 -3.833490 54.154054 19.554180 -53.304339 -17.106405 2.031894 8.008497 -10.704424 22.310606 -177.058406 69.731816 4.310954 9.838408 -53.491690 -54.554782 -21.730011 13.561991 -1.003482 14.459888 3.388942 1.230117 
-27.682356 0.000000 34.541419 0.000000 -79.263214 0.000000 1.473115 87.843783 -0.069432 96.750832 3.458894 179.630287 -169.680296 -1.094019 175.814815 -44.109527 -2.386492 -3.353338 81.350527 3.094932 2.945131 21.454556 0.003112 0.000013 161.181534 -3.877368 -168.644593 -23.873660 1.072796 2.505002 72.128305 -3.199398 -4.195521 21.454553 -0.003088 0.000001 8.089423 1.834915 -1.385007 6.125597 3.740243 -2.672696 5.807144 3.723912 -2.695246 9.996631 6.762993 11.222581 -10.086359 -14.135397 17.009913 142.209061 -72.634128 37.408921 -3.658681 55.589151 20.349143 -51.162897 -17.368237 1.976942 8.472569 -10.581666 21.665327 -176.753202 69.691709 4.625883 8.121581 -53.227501 -52.999516 -21.371554 13.566658 -0.999463 14.580390 3.065241 0.587675 
-27.482291 0.000000 36.153196 0.000000 -78.963901 0.000000 1.547607 87.954353 0.181408 96.881275 4.158863 -179.831135 -171.893008 -2.962997 175.042162 -49.502563 -2.153857 -2.403963 77.661360 2.311296 2.095142 21.454557 0.003115 0.000015 162.023179 -4.428207 -166.858216 -24.840344 0.726409 2.054965 73.715587 -2.890934 -4.500339 21.454551 -0.003087 0.000001 8.080293 2.088061 -1.532505 6.097014 4.253593 -2.955264 5.778428 4.235545 -2.980911 10.277377 6.594252 10.430841 -10.185253 -14.350695 16.240677 140.368116 -73.081832 39.248335 -3.382054 57.173097 21.419952 -48.992802 -17.505952 1.914534 9.011092 -10.235260 20.994166 -176.198294 69.677277 5.199466 6.357074 -53.101662 -51.054888 -21.340258 13.694913 -1.006907 14.667367 2.777577 -0.291281 
